<svg width="50" height="44" viewBox="0 0 50 44" fill="none" xmlns="http://www.w3.org/2000/svg">
<g clip-path="url(#clip0_65_1326)">
<path d="M50 9.92903H45.8507C45.4553 7.49504 44.3191 5.25251 42.5531 3.47393C37.9539 -1.15728 30.4715 -1.15728 25.8723 3.47393L0 29.5298H18.1769C20.3675 29.5298 22.5081 29.1003 24.5396 28.2528C26.5712 27.4054 28.3867 26.1845 29.9354 24.6248L33.3268 21.2093C35.7981 18.7205 35.7981 14.6706 33.3268 12.1818C32.1298 10.9763 30.538 10.3119 28.8448 10.3119C27.1516 10.3119 25.5598 10.9756 24.3628 12.1818L26.2449 14.0771C26.9394 13.3777 27.8626 12.9923 28.8448 12.9923C29.827 12.9923 30.7503 13.3777 31.4448 14.0771C32.8788 15.5213 32.8788 17.8704 31.4448 19.314L28.0534 22.7295C26.0902 24.7065 23.5568 26.0467 20.851 26.5847L29.6306 17.7428C30.1502 17.2195 30.1502 16.3707 29.6306 15.8474C29.111 15.3241 28.2682 15.3241 27.7486 15.8474L16.824 26.8495H13.5619L26.2442 14.0771L24.3622 12.1818L9.79786 26.8495H6.42481L27.7543 5.36929C31.3155 1.78277 37.1098 1.78277 40.6711 5.36929C42.3959 7.1064 43.3464 9.41658 43.3464 11.8735C43.3464 14.3305 42.3966 16.6407 40.6711 18.3778L22.5822 36.5944L27.2746 41.32H24.0194V44.0004H42.2768V41.32H38.4526L31.9954 34.8171L30.1134 36.7124L34.6885 41.32H31.0386L26.3462 36.5944L42.5531 20.2725C44.6074 18.2036 45.8102 15.5047 45.985 12.6087H50.0006V9.92839L50 9.92903Z" fill="#F5BD7C"/>
<path d="M39.3676 9.2905C39.3676 8.2841 38.5546 7.46469 37.5546 7.46469C36.5547 7.46469 35.7417 8.28347 35.7417 9.2905C35.7417 10.2975 36.5547 11.1163 37.5546 11.1163C38.5546 11.1163 39.3676 10.2975 39.3676 9.2905Z" fill="#F5BD7C"/>
</g>
<defs>
<clipPath id="clip0_65_1326">
<rect width="50" height="44" fill="white"/>
</clipPath>
</defs>
</svg>
