<svg width="28" height="28" viewBox="0 0 28 28" fill="none" xmlns="http://www.w3.org/2000/svg">
<g id="Frame">
<path id="Vector" d="M14 25.6667C7.55669 25.6667 2.33334 20.4433 2.33334 14C2.33334 7.55668 7.55669 2.33334 14 2.33334C20.4433 2.33334 25.6667 7.55668 25.6667 14C25.6667 20.4433 20.4433 25.6667 14 25.6667ZM14 23.3333C19.1547 23.3333 23.3333 19.1547 23.3333 14C23.3333 8.84534 19.1547 4.66667 14 4.66667C8.84535 4.66667 4.66668 8.84534 4.66668 14C4.66668 19.1547 8.84535 23.3333 14 23.3333ZM14 12.3501L17.2998 9.05026L18.9497 10.7002L15.6499 14L18.9497 17.2998L17.2998 18.9497L14 15.6499L10.7002 18.9497L9.05026 17.2998L12.3501 14L9.05026 10.7002L10.7002 9.05026L14 12.3501Z" fill="#F5BD7C"/>
</g>
</svg>
